HIERARCHY
ROOT Hips
{
	OFFSET 56.877701 -32.693596 43.373703
	CHANNELS 6 Xposition Yposition Zposition Zrotation Xrotation Yrotation
	JOINT Chest
	{
		OFFSET -0.779999 1.005800 5.403099
		CHANNELS 6 Xposition Yposition Zposition Zrotation Xrotation Yrotation
		JOINT Chest2
		{
			OFFSET 0.000000 0.000000 4.236801
			CHANNELS 6 Xposition Yposition Zposition Zrotation Xrotation Yrotation
			JOINT Neck
			{
				OFFSET 0.000000 0.000000 9.874401
				CHANNELS 6 Xposition Yposition Zposition Zrotation Xrotation Yrotation
				JOINT Head
				{
					OFFSET 0.000000 0.000002 2.173893
					CHANNELS 6 Xposition Yposition Zposition Zrotation Xrotation Yrotation
					End Site
					{
						OFFSET 0.000000 0.000000 6.508102
					}
				}
			}
			JOINT LeftCollar
			{
				OFFSET 2.681599 -0.377600 5.432499
				CHANNELS 6 Xposition Yposition Zposition Zrotation Xrotation Yrotation
				JOINT LeftShoulder
				{
					OFFSET 5.161499 0.000000 0.000000
					CHANNELS 6 Xposition Yposition Zposition Zrotation Xrotation Yrotation
					JOINT LeftElbow
					{
						OFFSET 0.000000 0.000000 -10.869099
						CHANNELS 6 Xposition Yposition Zposition Zrotation Xrotation Yrotation
						JOINT LeftWrist
						{
							OFFSET 0.000000 0.000000 -13.344799
							CHANNELS 6 Xposition Yposition Zposition Zrotation Xrotation Yrotation
							End Site
							{
								OFFSET 0.000000 0.000000 -2.173901
							}
						}
					}
				}
			}
			JOINT RightCollar
			{
				OFFSET -2.381901 -1.419600 6.136600
				CHANNELS 6 Xposition Yposition Zposition Zrotation Xrotation Yrotation
				JOINT RightShoulder
				{
					OFFSET -4.550499 0.000000 0.000000
					CHANNELS 6 Xposition Yposition Zposition Zrotation Xrotation Yrotation
					JOINT RightElbow
					{
						OFFSET 0.000000 0.000000 -11.106499
						CHANNELS 6 Xposition Yposition Zposition Zrotation Xrotation Yrotation
						JOINT RightWrist
						{
							OFFSET 0.000000 0.000000 -12.874298
							CHANNELS 6 Xposition Yposition Zposition Zrotation Xrotation Yrotation
							End Site
							{
								OFFSET 0.000000 0.000000 -2.173901
							}
						}
					}
				}
			}
		}
	}
	JOINT LeftHip
	{
		OFFSET 2.431900 0.469601 -2.489399
		CHANNELS 6 Xposition Yposition Zposition Zrotation Xrotation Yrotation
		JOINT LeftKnee
		{
			OFFSET 0.000000 -0.000004 -18.200201
			CHANNELS 6 Xposition Yposition Zposition Zrotation Xrotation Yrotation
			JOINT LeftAnkle
			{
				OFFSET 0.000000 0.000000 -16.279900
				CHANNELS 6 Xposition Yposition Zposition Zrotation Xrotation Yrotation
				End Site
				{
					OFFSET 0.000000 -8.394100 0.000000
				}
			}
		}
	}
	JOINT RightHip
	{
		OFFSET -1.987999 -0.073502 -2.713001
		CHANNELS 6 Xposition Yposition Zposition Zrotation Xrotation Yrotation
		JOINT RightKnee
		{
			OFFSET 0.000000 -0.000004 -19.547802
			CHANNELS 6 Xposition Yposition Zposition Zrotation Xrotation Yrotation
			JOINT RightAnkle
			{
				OFFSET 0.000000 0.000000 -14.881199
				CHANNELS 6 Xposition Yposition Zposition Zrotation Xrotation Yrotation
				End Site
				{
					OFFSET 0.000000 -7.922699 0.000000
				}
			}
		}
	}
}
MOTION
Frames: 7
Frame Time: 0.041667
69.889397 -32.221195 39.818405 -93.718945 35.975675 2.066408 -0.779994 1.005801 5.403099 -5.177155 25.251834 2.674815 0.000008 0.000005 4.236804 2.042539 -6.875559 -0.968955 0.000004 0.000003 9.874405 -0.335659 39.335363 5.154859 0.000005 0.000004 2.173893 -0.793534 2.263210 0.526897 2.681601 -0.377599 5.432502 -1.600689 9.010151 -32.642847 5.161505 0.000010 0.000004 111.036541 -153.644996 82.296362 -0.000007 -0.000002 -10.869099 14.424108 -38.183729 49.083423 0.000002 0.000000 -13.344794 -12.881709 -27.829616 10.533830 -2.381900 -1.419596 6.136602 7.193291 6.186763 24.811330 -4.550498 0.000006 0.000003 -109.178231 -184.134687 -75.559828 0.000002 -0.000008 -11.106499 -2.162451 -60.122617 -23.949717 -0.000008 0.000004 -12.874302 -229.041569 13.782607 -30.726105 2.431907 0.469610 -2.489392 73.018294 -56.465935 66.761575 0.000001 -0.000008 -18.200214 -101.132610 54.836908 59.096135 -0.000001 -0.000004 -16.279903 31.838893 17.896583 -2.958587 -1.988000 -0.073488 -2.713001 -80.514652 -36.368992 -73.817775 -0.000009 0.000000 -19.547796 -135.674140 103.836197 181.886326 0.000002 -0.000007 -14.881201 -15.468924 19.645969 18.458726
69.666496 -32.198296 40.214302 -93.544516 35.022690 1.833078 -0.779997 1.005798 5.403087 -5.700235 24.302636 2.847557 0.000001 -0.000006 4.236801 2.408657 -6.881328 -0.964971 -0.000000 -0.000003 9.874406 -0.519503 40.056003 5.427823 -0.000002 0.000008 2.173892 -0.517329 2.574158 0.456813 2.681600 -0.377604 5.432500 -2.263985 8.356926 -32.962527 5.161501 0.000004 -0.000005 112.188295 -153.845353 82.246461 0.000003 0.000000 -10.869091 16.199949 -38.577530 51.078726 -0.000004 -0.000006 -13.344802 -12.290046 -28.813539 11.871933 -2.381900 -1.419604 6.136600 4.928092 8.031158 25.185506 -4.550498 -0.000001 -0.000005 -108.868605 -183.041570 -71.969949 0.000012 0.000001 -11.106503 -4.282329 -61.369537 -26.219764 -0.000010 0.000007 -12.874297 -230.152349 13.495125 -30.573214 2.431904 0.469604 -2.489398 69.183942 -55.753943 62.620472 -0.000003 -0.000000 -18.200211 -97.037092 55.414930 55.146664 -0.000001 0.000005 -16.279902 29.165577 18.129479 -5.470426 -1.987999 -0.073501 -2.713010 -78.202415 -36.937776 -70.563429 -0.000007 -0.000000 -19.547798 -148.062764 106.619376 192.251752 -0.000002 0.000001 -14.881196 -12.781707 20.379729 20.197173
69.429497 -32.189095 40.604103 -93.580319 34.058585 1.723935 -0.779990 1.005796 5.403095 -5.802782 23.397518 2.889511 0.000005 0.000008 4.236808 2.648380 -7.088597 -0.988566 -0.000001 0.000002 9.874405 -0.777846 40.881667 5.645572 -0.000000 -0.000001 2.173894 -0.463757 2.722485 0.365351 2.681594 -0.377594 5.432503 -3.025955 8.647547 -32.523797 5.161501 -0.000010 0.000003 113.018785 -153.145395 80.951313 0.000010 0.000002 -10.869099 16.311250 -38.999537 52.493395 -0.000005 0.000000 -13.344797 -12.020165 -30.837102 13.138803 -2.381902 -1.419600 6.136599 5.594980 8.071112 24.225168 -4.550500 -0.000003 0.000011 -110.413737 -183.650003 -70.711596 0.000004 0.000001 -11.106498 -5.800621 -62.823233 -28.223153 0.000002 -0.000001 -12.874302 -231.774710 13.101311 -30.367670 2.431911 0.469591 -2.489403 65.682111 -54.847966 58.581050 0.000005 -0.000002 -18.200203 -91.082506 56.550193 49.869509 -0.000009 0.000005 -16.279903 26.021393 18.830859 -8.503973 -1.987997 -0.073509 -2.713000 -75.909691 -37.174223 -67.297307 -0.000004 -0.000002 -19.547785 -154.905767 109.417137 197.329684 -0.000003 0.000005 -14.881199 -10.657966 21.153350 21.588696
69.143997 -32.176796 40.981003 -93.536647 32.778897 1.564886 -0.779998 1.005789 5.403095 -5.760962 22.790837 2.875119 0.000005 0.000012 4.236796 2.677575 -7.074638 -0.986271 0.000001 -0.000000 9.874390 -0.713299 41.556469 5.522392 -0.000002 -0.000004 2.173895 -0.634330 2.785603 0.381634 2.681596 -0.377603 5.432500 -3.400373 8.030054 -33.222877 5.161505 0.000009 -0.000003 113.542401 -152.144977 80.445640 0.000008 0.000000 -10.869104 16.712889 -39.553479 53.546388 -0.000001 -0.000001 -13.344796 -11.938007 -32.751006 14.004201 -2.381899 -1.419601 6.136591 5.384902 7.335090 24.889752 -4.550501 -0.000007 0.000012 -110.937032 -183.214866 -70.034116 0.000010 -0.000005 -11.106505 -8.258372 -63.949552 -30.596536 0.000001 0.000001 -12.874290 -233.195718 12.745910 -30.196174 2.431900 0.469592 -2.489395 62.438912 -53.437884 54.488766 -0.000001 -0.000003 -18.200211 -84.083112 57.652192 43.824761 0.000006 0.000011 -16.279896 22.875576 20.004231 -11.548554 -1.988003 -0.073503 -2.713017 -72.598176 -37.961758 -63.062904 -0.000003 0.000004 -19.547800 -161.200278 112.593777 200.889606 -0.000004 0.000002 -14.881201 -8.629912 22.090382 22.566747
68.862900 -32.163696 41.349102 -93.571679 31.595110 1.450012 -0.779994 1.005810 5.403084 -5.418732 22.033611 2.816431 0.000006 0.000010 4.236796 2.586919 -6.997976 -0.976269 0.000009 -0.000008 9.874389 -0.835407 42.152769 5.506485 0.000003 0.000003 2.173894 -0.689076 2.643260 0.270842 2.681599 -0.377612 5.432493 -3.556900 7.553115 -32.904156 5.161503 -0.000003 0.000001 113.593224 -152.291936 79.128609 0.000002 0.000000 -10.869099 17.071966 -39.993295 54.409984 0.000001 0.000000 -13.344803 -10.655743 -33.469874 13.627762 -2.381900 -1.419608 6.136590 5.128895 6.369907 25.315992 -4.550504 -0.000010 0.000004 -111.276834 -182.998731 -69.337212 0.000003 -0.000004 -11.106505 -11.259449 -64.666387 -33.600344 -0.000006 0.000001 -12.874298 -234.466679 12.421851 -30.057146 2.431897 0.469611 -2.489406 59.088212 -52.283845 50.243718 0.000002 -0.000004 -18.200207 -75.375065 58.350197 36.877185 0.000005 -0.000007 -16.279896 19.803507 21.186209 -14.285970 -1.987996 -0.073490 -2.713009 -69.847024 -38.055475 -59.217248 -0.000002 -0.000001 -19.547802 -164.949260 115.432547 202.444621 0.000003 0.000001 -14.881198 -6.705965 22.933224 23.257090
68.565201 -32.151493 41.704208 -93.445956 30.320545 1.156318 -0.779993 1.005804 5.403098 -5.483833 21.334741 2.944860 0.000004 0.000006 4.236794 2.610442 -6.927905 -0.965554 0.000006 0.000015 9.874399 -0.740012 42.706991 5.355326 -0.000000 -0.000001 2.173895 -0.784434 2.574877 0.269527 2.681600 -0.377591 5.432502 -3.745620 7.341410 -33.446159 5.161499 0.000006 0.000002 113.873733 -151.237218 77.934009 0.000005 0.000000 -10.869097 16.884706 -40.258241 54.825304 0.000010 -0.000004 -13.344803 -7.989072 -34.801040 14.255614 -2.381903 -1.419585 6.136599 6.246167 4.498795 25.617528 -4.550497 -0.000010 0.000000 -112.440138 -183.379924 -69.866838 0.000000 0.000000 -11.106497 -14.771688 -65.231018 -36.901555 0.000002 -0.000001 -12.874298 -235.625189 12.111649 -29.931180 2.431903 0.469608 -2.489395 55.510867 -51.064038 45.936741 -0.000001 -0.000004 -18.200201 -64.949888 58.647426 28.993631 -0.000000 0.000001 -16.279903 16.132873 22.805071 -16.660315 -1.987997 -0.073501 -2.713001 -67.200230 -38.068667 -55.247252 -0.000002 0.000002 -19.547802 -167.655353 117.974265 202.937174 0.000002 0.000001 -14.881203 -4.971860 23.715759 24.038193
68.249603 -32.140198 42.058102 -93.377231 29.058039 0.873939 -0.779998 1.005805 5.403099 -5.653008 20.634295 3.147172 0.000006 -0.000005 4.236814 2.687982 -6.885716 -0.957847 -0.000001 -0.000005 9.874400 -0.580098 43.150560 5.240801 -0.000002 -0.000000 2.173894 -0.821383 2.494067 0.322602 2.681592 -0.377595 5.432503 -3.682077 7.068485 -33.709712 5.161501 0.000003 -0.000001 114.218924 -151.240701 76.675765 0.000006 -0.000006 -10.869101 16.851127 -41.066430 54.691869 0.000005 -0.000004 -13.344796 -4.957210 -35.809825 14.134924 -2.381901 -1.419597 6.136595 5.987696 4.241813 25.687819 -4.550501 -0.000007 0.000009 -112.197366 -181.498603 -68.089562 0.000005 -0.000009 -11.106498 -14.157722 -60.748645 -33.961814 0.000008 -0.000003 -12.874308 -379.211365 -3.507173 -32.881381 2.431902 0.469606 -2.489399 52.348578 -49.571324 41.753722 -0.000005 -0.000008 -18.200201 -54.595584 58.001119 21.410666 -0.000000 -0.000007 -16.279900 12.467047 24.497039 -18.747227 -1.988000 -0.073493 -2.712990 -64.089755 -38.211722 -51.016746 -0.000003 -0.000006 -19.547808 -170.411089 120.510096 203.049995 -0.000000 -0.000003 -14.881197 -3.384755 24.573496 24.768544
